<svg width="512" height="512" viewBox="0 0 512 512" fill="none" xmlns="http://www.w3.org/2000/svg">
  <rect x="32" y="32" width="448" height="448" rx="120" fill="url(#grad)" stroke="white" stroke-width="8" stroke-opacity="0.1"/>
  <path d="M120 360C100 360 90 340 100 310L140 150C145 130 170 120 190 135L256 180L322 135C342 120 367 130 372 150L412 310C422 340 412 360 392 360H120Z" fill="white" fill-opacity="0.95"/>
  <circle cx="190" cy="260" r="35" fill="#1e1b4b"/>
  <circle cx="322" cy="260" r="35" fill="#1e1b4b"/>
  <circle cx="190" cy="260" r="15" fill="#06b6d4">
    <animate attributeName="opacity" values="0.5;1;0.5" dur="3s" repeatCount="indefinite"/>
  </circle>
  <circle cx="322" cy="260" r="15" fill="#ec4899">
    <animate attributeName="opacity" values="0.5;1;0.5" dur="3s" repeatCount="indefinite"/>
  </circle>
  <path d="M236 320 Q 256 340 276 320" stroke="#1e1b4b" stroke-width="8" stroke-linecap="round"/>
  <defs>
    <linearGradient id="grad" x1="0" y1="0" x2="512" y2="512" gradientUnits="userSpaceOnUse">
      <stop offset="0" stop-color="#3b82f6"/>
      <stop offset="1" stop-color="#ec4899"/>
    </linearGradient>
    <filter id="glow" x="-20%" y="-20%" width="140%" height="140%">
      <feGaussianBlur stdDeviation="15" result="blur"/>
      <feComposite in="SourceGraphic" in2="blur" operator="over"/>
    </filter>
  </defs>
</svg>